<svg width="32" height="32" viewBox="0 0 32 32" fill="none" xmlns="http://www.w3.org/2000/svg">
  <!-- Simplified moltbot head for favicon -->
  <!-- Antennae -->
  <path d="M13 7 Q12 4, 10 2" stroke="#e94560" stroke-width="1.5" stroke-linecap="round" fill="none"/>
  <path d="M19 7 Q20 4, 22 2" stroke="#e94560" stroke-width="1.5" stroke-linecap="round" fill="none"/>
  <!-- Body -->
  <circle cx="16" cy="17" r="11" fill="#e94560"/>
  <!-- Left eye -->
  <circle cx="13" cy="16" r="2.5" fill="#1a1a2e"/>
  <circle cx="13.8" cy="15.2" r="0.8" fill="#43b581"/>
  <!-- Right eye -->
  <circle cx="19" cy="16" r="2.5" fill="#1a1a2e"/>
  <circle cx="19.8" cy="15.2" r="0.8" fill="#43b581"/>
  <!-- Headset band -->
  <path d="M6 18 Q6 5, 16 5 Q26 5, 26 18" stroke="#533483" stroke-width="2" fill="none" stroke-linecap="round"/>
  <!-- Left ear cup -->
  <rect x="4" y="14" width="4" height="6" rx="1.5" fill="#533483"/>
  <!-- Right ear cup -->
  <rect x="24" y="14" width="4" height="6" rx="1.5" fill="#533483"/>
  <!-- Stubby legs -->
  <rect x="11" y="27" width="2.5" height="3" rx="1.2" fill="#c73550"/>
  <rect x="15" y="27.5" width="2.5" height="2.5" rx="1.2" fill="#c73550"/>
  <rect x="19" y="27" width="2.5" height="3" rx="1.2" fill="#c73550"/>
</svg>
